<?xml version="1.0" standalone="no"?>
<!DOCTYPE svg PUBLIC "-//W3C//DTD SVG 20010904//EN"
 "http://www.w3.org/TR/2001/REC-SVG-20010904/DTD/svg10.dtd">
<svg version="1.0" xmlns="http://www.w3.org/2000/svg"
 width="768.000000pt" height="768.000000pt" viewBox="0 0 768.000000 768.000000"
 preserveAspectRatio="xMidYMid meet">
<metadata>
Created by potrace 1.14, written by Peter Selinger 2001-2017
</metadata>
<g transform="translate(0.000000,768.000000) scale(0.100000,-0.100000)"
fill="#000000" stroke="none">
<path d="M3609 7666 c-2 -2 -44 -7 -94 -11 -49 -3 -101 -8 -115 -10 -265 -32
-477 -78 -725 -157 -71 -23 -133 -41 -137 -40 -5 1 -8 -3 -8 -10 0 -6 -3 -9
-6 -6 -5 5 -84 -23 -149 -52 -11 -5 -47 -21 -80 -35 -434 -192 -812 -452
-1155 -795 -175 -174 -220 -225 -337 -377 -213 -277 -406 -618 -523 -923 -29
-74 -56 -144 -61 -155 -47 -112 -143 -506 -165 -675 -3 -25 -7 -56 -10 -70 -4
-30 -12 -94 -23 -210 -9 -88 -7 -596 2 -640 3 -14 8 -54 11 -90 13 -132 49
-333 92 -505 107 -428 284 -825 529 -1189 44 -66 85 -126 90 -135 6 -9 13 -18
16 -21 3 -3 22 -27 43 -55 91 -121 202 -245 341 -382 168 -166 178 -175 325
-290 58 -46 110 -87 116 -92 26 -21 227 -153 298 -195 381 -230 896 -420 1306
-482 19 -3 76 -12 125 -19 151 -23 269 -30 530 -30 221 0 377 7 455 20 14 2
47 7 73 10 63 7 299 52 351 66 23 6 49 13 58 14 143 28 591 189 708 255 8 5
51 27 95 49 44 22 107 56 140 75 33 19 73 43 90 52 98 55 421 283 445 313 3 4
19 17 35 30 114 86 344 315 469 466 32 39 68 81 80 95 45 55 83 106 94 127 7
12 18 27 25 35 22 22 147 216 207 323 164 289 315 661 385 951 16 64 55 255
60 289 3 22 8 47 10 55 2 8 7 39 10 69 4 30 8 62 10 72 30 155 27 752 -5 954
-5 33 -12 76 -14 96 -14 108 -52 279 -116 514 -11 41 -59 185 -70 210 -5 11
-25 63 -45 115 -96 248 -267 557 -449 814 -106 150 -294 365 -446 511 -121
117 -154 146 -290 252 -58 46 -110 87 -115 91 -71 58 -330 218 -485 300 -282
149 -723 305 -1005 356 -161 30 -246 42 -345 52 -30 2 -66 7 -80 10 -28 6
-565 15 -571 10z"/>
</g>
</svg>
